<svg width="108" height="46" viewBox="0 0 108 46" fill="none" xmlns="http://www.w3.org/2000/svg">
<path d="M0.227273 35V0.0909081H4.45455V31.25H20.6818V35H0.227273ZM37.3182 35.5455C34.9545 35.5455 32.8807 34.983 31.0966 33.858C29.3239 32.733 27.9375 31.1591 26.9375 29.1364C25.9489 27.1136 25.4545 24.75 25.4545 22.0455C25.4545 19.3182 25.9489 16.9375 26.9375 14.9034C27.9375 12.8693 29.3239 11.2898 31.0966 10.1648C32.8807 9.03977 34.9545 8.47727 37.3182 8.47727C39.6818 8.47727 41.75 9.03977 43.5227 10.1648C45.3068 11.2898 46.6932 12.8693 47.6818 14.9034C48.6818 16.9375 49.1818 19.3182 49.1818 22.0455C49.1818 24.75 48.6818 27.1136 47.6818 29.1364C46.6932 31.1591 45.3068 32.733 43.5227 33.858C41.75 34.983 39.6818 35.5455 37.3182 35.5455ZM37.3182 31.9318C39.1136 31.9318 40.5909 31.4716 41.75 30.5511C42.9091 29.6307 43.767 28.4205 44.3239 26.9205C44.8807 25.4205 45.1591 23.7955 45.1591 22.0455C45.1591 20.2955 44.8807 18.6648 44.3239 17.1534C43.767 15.642 42.9091 14.4205 41.75 13.4886C40.5909 12.5568 39.1136 12.0909 37.3182 12.0909C35.5227 12.0909 34.0455 12.5568 32.8864 13.4886C31.7273 14.4205 30.8693 15.642 30.3125 17.1534C29.7557 18.6648 29.4773 20.2955 29.4773 22.0455C29.4773 23.7955 29.7557 25.4205 30.3125 26.9205C30.8693 28.4205 31.7273 29.6307 32.8864 30.5511C34.0455 31.4716 35.5227 31.9318 37.3182 31.9318ZM65.8906 45.3636C63.9474 45.3636 62.277 45.1136 60.8793 44.6136C59.4815 44.125 58.3168 43.4773 57.3849 42.6705C56.4645 41.875 55.7315 41.0227 55.1861 40.1136L58.3906 37.8636C58.7543 38.3409 59.2145 38.8864 59.7713 39.5C60.3281 40.125 61.0895 40.6648 62.0554 41.1193C63.0327 41.5852 64.3111 41.8182 65.8906 41.8182C68.0043 41.8182 69.7486 41.3068 71.1236 40.2841C72.4986 39.2614 73.1861 37.6591 73.1861 35.4773V30.1591H72.8452C72.5497 30.6364 72.1293 31.2273 71.5838 31.9318C71.0497 32.625 70.277 33.2443 69.2656 33.7898C68.2656 34.3239 66.9134 34.5909 65.2088 34.5909C63.0952 34.5909 61.1974 34.0909 59.5156 33.0909C57.8452 32.0909 56.5213 30.6364 55.544 28.7273C54.5781 26.8182 54.0952 24.5 54.0952 21.7727C54.0952 19.0909 54.5668 16.7557 55.5099 14.767C56.4531 12.767 57.7656 11.2216 59.4474 10.1307C61.1293 9.02841 63.0724 8.47727 65.277 8.47727C66.9815 8.47727 68.3338 8.76136 69.3338 9.32955C70.3452 9.88636 71.1179 10.5227 71.652 11.2386C72.1974 11.9432 72.6179 12.5227 72.9134 12.9773H73.3224V8.81818H77.2088V35.75C77.2088 38 76.6974 39.8295 75.6747 41.2386C74.6634 42.6591 73.2997 43.6989 71.5838 44.358C69.8793 45.0284 67.9815 45.3636 65.8906 45.3636ZM65.7543 30.9773C67.3679 30.9773 68.7315 30.608 69.8452 29.8693C70.9588 29.1307 71.8054 28.0682 72.3849 26.6818C72.9645 25.2955 73.2543 23.6364 73.2543 21.7045C73.2543 19.8182 72.9702 18.1534 72.402 16.7102C71.8338 15.267 70.9929 14.1364 69.8793 13.3182C68.7656 12.5 67.3906 12.0909 65.7543 12.0909C64.0497 12.0909 62.6293 12.5227 61.4929 13.3864C60.3679 14.25 59.5213 15.4091 58.9531 16.8636C58.3963 18.3182 58.1179 19.9318 58.1179 21.7045C58.1179 23.5227 58.402 25.1307 58.9702 26.5284C59.5497 27.9148 60.402 29.0057 61.527 29.8011C62.6634 30.5852 64.0724 30.9773 65.7543 30.9773ZM95.2088 35.5455C92.8452 35.5455 90.7713 34.983 88.9872 33.858C87.2145 32.733 85.8281 31.1591 84.8281 29.1364C83.8395 27.1136 83.3452 24.75 83.3452 22.0455C83.3452 19.3182 83.8395 16.9375 84.8281 14.9034C85.8281 12.8693 87.2145 11.2898 88.9872 10.1648C90.7713 9.03977 92.8452 8.47727 95.2088 8.47727C97.5724 8.47727 99.6406 9.03977 101.413 10.1648C103.197 11.2898 104.584 12.8693 105.572 14.9034C106.572 16.9375 107.072 19.3182 107.072 22.0455C107.072 24.75 106.572 27.1136 105.572 29.1364C104.584 31.1591 103.197 32.733 101.413 33.858C99.6406 34.983 97.5724 35.5455 95.2088 35.5455ZM95.2088 31.9318C97.0043 31.9318 98.4815 31.4716 99.6406 30.5511C100.8 29.6307 101.658 28.4205 102.214 26.9205C102.771 25.4205 103.05 23.7955 103.05 22.0455C103.05 20.2955 102.771 18.6648 102.214 17.1534C101.658 15.642 100.8 14.4205 99.6406 13.4886C98.4815 12.5568 97.0043 12.0909 95.2088 12.0909C93.4134 12.0909 91.9361 12.5568 90.777 13.4886C89.6179 14.4205 88.7599 15.642 88.2031 17.1534C87.6463 18.6648 87.3679 20.2955 87.3679 22.0455C87.3679 23.7955 87.6463 25.4205 88.2031 26.9205C88.7599 28.4205 89.6179 29.6307 90.777 30.5511C91.9361 31.4716 93.4134 31.9318 95.2088 31.9318Z" fill="white"/>
</svg>
